<?xml version="1.0" encoding="utf-8"?>
<!-- Generator: Adobe Illustrator 24.0.3, SVG Export Plug-In . SVG Version: 6.00 Build 0)  -->
<svg version="1.1" id="Layer_1" xmlns="http://www.w3.org/2000/svg" xmlns:xlink="http://www.w3.org/1999/xlink" x="0px" y="0px"
	 viewBox="0 0 604 604" style="enable-background:new 0 0 604 604;" xml:space="preserve">
<style type="text/css">
	.st0{fill:#EF0000;}
	.st1{fill:#F0FEFF;}
</style>
<path class="st0" d="M302,604.5L302,604.5C134.9,604.5-0.5,469.1-0.5,302v0C-0.5,134.9,134.9-0.5,302-0.5h0
	c167.1,0,302.5,135.4,302.5,302.5v0C604.5,469.1,469.1,604.5,302,604.5z"/>
<path class="st1" d="M427,150v243.6h-69v-95.1h-94.1v95.1h-69V150h69v91.3H358V150H427z"/>
<g>
	<path class="st1" d="M260.3,486.6h-20.9l-3.9,9.6h-14.3l21.9-49.6H257l21.9,49.6h-14.6L260.3,486.6z M256.2,476.3l-6.4-15.8
		l-6.4,15.8H256.2z"/>
	<path class="st1" d="M290.8,457.8h-15.3v-11.1h44.4v11.1h-15.2v38.5h-14.1v-38.5H290.8z"/>
	<path class="st1" d="M370,496.2l-0.1-26.2l-12.7,21.4h-6.2l-12.7-20.7v25.6h-12.9v-49.6h11.5l17.4,28.7l17-28.7h11.5l0.1,49.6H370z
		"/>
</g>
</svg>
