<?xml version="1.0" encoding="utf-8"?>
<!-- Generator: Adobe Illustrator 24.0.3, SVG Export Plug-In . SVG Version: 6.00 Build 0)  -->
<svg version="1.1" id="Layer_1" xmlns="http://www.w3.org/2000/svg" xmlns:xlink="http://www.w3.org/1999/xlink" x="0px" y="0px"
	 viewBox="0 0 512 512" style="enable-background:new 0 0 512 512;" xml:space="preserve">
<style type="text/css">
	.st0{fill:#EF0000;}
	.st1{fill:#F0FEFF;}
</style>
<rect x="0" y="202.4" class="st0" width="512" height="107.2"/>
<g>
	<path class="st1" d="M95.2,229.8v44.8H82.5v-17.5H65.2v17.5H52.5v-44.8h12.7v16.8h17.3v-16.8H95.2z"/>
	<path class="st1" d="M138.8,260.4h-25.2c0.5,1.8,1.5,3.2,3,4.1c1.5,1,3.3,1.4,5.5,1.4c1.7,0,3.1-0.2,4.3-0.7
		c1.2-0.5,2.4-1.2,3.7-2.3l6.4,6.7c-3.4,3.8-8.3,5.6-14.8,5.6c-4.1,0-7.6-0.8-10.7-2.3c-3.1-1.5-5.5-3.7-7.1-6.4s-2.5-5.8-2.5-9.3
		c0-3.4,0.8-6.5,2.5-9.2c1.6-2.7,3.9-4.8,6.8-6.4s6.2-2.3,9.8-2.3c3.5,0,6.6,0.7,9.4,2.1c2.8,1.4,5,3.5,6.7,6.2
		c1.6,2.7,2.5,5.9,2.5,9.6C139,257.4,138.9,258.4,138.8,260.4z M115.8,249.6c-1.3,1.1-2.1,2.5-2.4,4.4h14.2
		c-0.3-1.8-1.1-3.3-2.4-4.4c-1.3-1.1-2.8-1.6-4.7-1.6C118.6,248,117.1,248.5,115.8,249.6z"/>
	<path class="st1" d="M144.6,227.1h12.2v47.5h-12.2V227.1z"/>
	<path class="st1" d="M195.1,241.6c2.6,1.5,4.6,3.6,6.1,6.3c1.5,2.7,2.3,5.9,2.3,9.4s-0.8,6.7-2.3,9.4c-1.5,2.7-3.6,4.8-6.1,6.3
		c-2.6,1.5-5.5,2.2-8.6,2.2c-4.1,0-7.3-1.2-9.7-3.6V287h-12.2v-47.1h11.6v3.5c2.3-2.7,5.7-4,10.2-4
		C189.7,239.4,192.5,240.1,195.1,241.6z M189.2,263.3c1.4-1.5,2-3.5,2-6c0-2.6-0.7-4.6-2-6c-1.4-1.5-3.1-2.2-5.2-2.2
		c-2.1,0-3.9,0.7-5.2,2.2c-1.4,1.5-2,3.5-2,6c0,2.6,0.7,4.6,2,6c1.4,1.5,3.1,2.2,5.2,2.2C186.1,265.5,187.8,264.8,189.2,263.3z"/>
	<path class="st1" d="M222.4,241.2h8.3v9.1h-7.9v24.3h-12.2v-24.3h-5.1v-9.1h5.1v-0.9c0-4.2,1.3-7.6,3.8-10
		c2.5-2.5,6.1-3.7,10.7-3.7c1.5,0,3,0.1,4.5,0.4c1.5,0.3,2.6,0.7,3.6,1.3l-3,8.6c-1.2-0.7-2.4-1-3.6-1c-1.3,0-2.3,0.4-3,1.2
		s-1.1,1.9-1.1,3.4V241.2z"/>
	<path class="st1" d="M271.6,239.9v34.7H260v-3.7c-1.3,1.4-2.8,2.5-4.6,3.2s-3.7,1.1-5.7,1.1c-4.5,0-8.1-1.3-10.7-4
		c-2.7-2.6-4-6.6-4-11.9v-19.4h12.2v17.4c0,2.6,0.5,4.5,1.5,5.7c1,1.2,2.4,1.8,4.3,1.8c1.9,0,3.5-0.7,4.7-2c1.2-1.3,1.8-3.4,1.8-6.2
		v-16.7H271.6z"/>
	<path class="st1" d="M279.4,227.1h12.2v47.5h-12.2V227.1z"/>
	<path class="st1" d="M348.7,265.9h-18.9l-3.5,8.7h-12.9l19.8-44.8h12.5l19.8,44.8h-13.2L348.7,265.9z M345,256.6l-5.8-14.3
		l-5.8,14.3H345z"/>
	<path class="st1" d="M376.3,239.9h-13.8v-10h40.1v10h-13.7v34.8h-12.7V239.9z"/>
	<path class="st1" d="M447.8,274.6l-0.1-23.7l-11.5,19.3h-5.6l-11.5-18.7v23.1h-11.7v-44.8h10.4l15.7,25.9l15.4-25.9h10.4l0.1,44.8
		H447.8z"/>
</g>
</svg>
